<svg xmlns="http://www.w3.org/2000/svg" viewBox="0 0 125.84 25.24">
  <title>rocketmakers</title>
  <path
    d="M38.5,9.53a1,1,0,0,0-.22-.66.75.75,0,0,0-.62-.27H36.58l-.4,4.84h1.24c.51,0,.8-.32.86-1l.22-2.93m1.37,4.21a1.59,1.59,0,0,1,.58,1.35v.07a.41.41,0,0,1,0,.1c0,.05,0,.09,0,.14l-.33,4.06c0,.37.2.55.61.55l-.11,1.25h-1c-1.27,0-1.9-.58-1.9-1.73a1.21,1.21,0,0,1,0-.23L38,15.24c0-.45-.2-.68-.61-.68H36.07l-.56,6.7H33.08L34.14,8.6h-.71l.11-1.11h4.39a3.44,3.44,0,0,1,2.19.63,2.12,2.12,0,0,1,.81,1.76C40.93,11.8,40.57,13.09,39.87,13.74Z"
    style="fill:#eeedee" />
  <path
    d="M75.4,12.88l-1,.19L73.85,19v.17a.77.77,0,0,0,.77.87l-.11,1.26h-.85a2.21,2.21,0,0,1-1.59-.55,2,2,0,0,1-.59-1.54v-.26l.5-6H71l.1-1.11h1l.18-2.24h2.39l-.2,2.24h1.06l-.11,1.11"
    style="fill:#eeedee" />
  <path
    d="M88.16,21.26H87a2.29,2.29,0,0,1-1.46-.45A1.57,1.57,0,0,1,85,19.53a.34.34,0,0,1,0-.09s0-.08,0-.12L85.45,14a1.19,1.19,0,0,0-.23-.74.77.77,0,0,0-.66-.33h-1l-.71,8.38H80.42L81,14a1.25,1.25,0,0,0-.23-.74.77.77,0,0,0-.66-.33h-1l-.71,8.38H76l.69-8.38h-.64l.11-1.11h8.5a4,4,0,0,1,2.37.62,2.11,2.11,0,0,1,.86,1.81.66.66,0,0,1,0,.14s0,.09,0,.14l-.4,4.72a1.15,1.15,0,0,0,0,.21,2.33,2.33,0,0,0,0,.29.32.32,0,0,0,.1.19.6.6,0,0,0,.24.09,2.44,2.44,0,0,0,.44,0l-.1,1.25"
    style="fill:#eeedee" />
  <path
    d="M92.44,12.88c-.51,0-.79.33-.85,1l-.41,5v.22a.94.94,0,0,0,1,1.08,1.43,1.43,0,0,0,1-.42,1.64,1.64,0,0,0,.49-1l.47-5.81H92.44m4.32,8.38h-.85a2.18,2.18,0,0,1-1.86-.76,2.64,2.64,0,0,1-1.88.76h-.39a3.58,3.58,0,0,1-1.14-.18,2.9,2.9,0,0,1-1-.49,2.21,2.21,0,0,1-.64-.76,2.11,2.11,0,0,1-.23-1v-.24l.35-4.19a2.41,2.41,0,0,1,.34-1.06,2.8,2.8,0,0,1,.77-.84A3.89,3.89,0,0,1,91.34,12a3.94,3.94,0,0,1,1.25-.19H96.8l-.62,7.52a.17.17,0,0,1,0,.07s0,.06,0,.08a.64.64,0,0,0,.71.7Z"
    style="fill:#eeedee" />
  <path
    d="M102.41,15.15a3.14,3.14,0,0,1,1.68.93,2.3,2.3,0,0,1,.59,1.61v.23l-.18,1.4c0,.45.21.68.64.69l-.09,1.25h-.85a2.68,2.68,0,0,1-1.61-.42,1.38,1.38,0,0,1-.57-1.18l.11-1.88a2,2,0,0,0-.26-1,.84.84,0,0,0-.78-.43,1.41,1.41,0,0,0-.82.3l-.4,4.65H97.44L98.5,8.74h-.7l.11-1.25h3.14l-.62,7.21,2.89-2.93h2.42l-3.33,3.38"
    style="fill:#eeedee" />
  <path
    d="M119.24,14.37h-1.33l.09-1.23a3.13,3.13,0,0,0-1.42,1.16,4,4,0,0,0-.45.85,3,3,0,0,0-.21.92l-.44,5.19H113l.71-8.24h-.69l.11-1.25h3.11l0,.8a3.65,3.65,0,0,1,2.43-.8h.82l-.24,2.6"
    style="fill:#eeedee" />
  <path
    d="M125.84,18.54a2.51,2.51,0,0,1-.24,1.11,2.63,2.63,0,0,1-.67.85,3,3,0,0,1-1,.56,4,4,0,0,1-1.28.2h-2.9l.11-1.12h2A1,1,0,0,0,122.93,19a1.64,1.64,0,0,0-.43-1.1L121,16.19a2.6,2.6,0,0,1-.76-1.84,2.3,2.3,0,0,1,.24-1.06,2.46,2.46,0,0,1,.69-.82,3.07,3.07,0,0,1,1-.52,4.18,4.18,0,0,1,1.24-.18h2l-.11,1.11h-1.44c-.61,0-.91.19-.91.57a1,1,0,0,0,.24.61l1.83,2.3a3.5,3.5,0,0,1,.84,2.18"
    style="fill:#eeedee" />
  <path
    d="M67.51,12.89a1,1,0,0,0-1,.9l-.21,2a.79.79,0,0,0,.8.9h.55a1,1,0,0,0,1-.9l.21-2a.79.79,0,0,0-.8-.9h-.55m-1.43,6.36a1,1,0,0,0,.3.72,1.34,1.34,0,0,0,.87.31c.37,0,.91.07,1.2-.22a1.46,1.46,0,0,0,.5-.94h1.2a2.12,2.12,0,0,1-.22.93,2.77,2.77,0,0,1-.59.76,2.35,2.35,0,0,1-.94.49,7.32,7.32,0,0,1-1.4.09h-.37a3.54,3.54,0,0,1-1.14-.18,2.77,2.77,0,0,1-.91-.5A2.25,2.25,0,0,1,64,20a2.19,2.19,0,0,1-.22-1l.35-4.38a2.45,2.45,0,0,1,.17-.72,2,2,0,0,1,.23-.51,2.8,2.8,0,0,1,.74-.84,3.52,3.52,0,0,1,1.07-.56,3.8,3.8,0,0,1,1.27-.21H68a3.64,3.64,0,0,1,1.15.18,3.16,3.16,0,0,1,1,.49,2.6,2.6,0,0,1,.63.77,2,2,0,0,1,.24,1v.24l-.07.81h0l0,.26a2.58,2.58,0,0,1-.33,1.05,3,3,0,0,1-.75.84,3.75,3.75,0,0,1-1.07.56,3.8,3.8,0,0,1-1.27.21H67a3.94,3.94,0,0,1-.84-.1Z"
    style="fill:#eeedee" />
  <path
    d="M109.25,12.88a1,1,0,0,0-1,.9l-.21,2a.78.78,0,0,0,.8.9h.54a1,1,0,0,0,1-.9l.21-2a.8.8,0,0,0-.81-.9h-.54m-1.44,6.36a1,1,0,0,0,.31.72,1.34,1.34,0,0,0,.87.31c.37,0,.91.07,1.2-.22a1.46,1.46,0,0,0,.5-.94h1.2a2,2,0,0,1-.23.93,2.56,2.56,0,0,1-.58.76,2.35,2.35,0,0,1-.94.49,7.32,7.32,0,0,1-1.4.09h-.37a3.49,3.49,0,0,1-1.14-.18,3,3,0,0,1-.92-.49,2.36,2.36,0,0,1-.6-.77,2.19,2.19,0,0,1-.22-1l.35-4.38a2.52,2.52,0,0,1,.17-.72,2.31,2.31,0,0,1,.22-.51,3,3,0,0,1,.75-.84,3.52,3.52,0,0,1,1.07-.56,3.8,3.8,0,0,1,1.27-.21h.38a3.69,3.69,0,0,1,1.15.18,2.82,2.82,0,0,1,.94.5,2.34,2.34,0,0,1,.64.76,2,2,0,0,1,.24,1v.24l-.07.82h0l0,.25a2.45,2.45,0,0,1-.34,1,3,3,0,0,1-.74.84,3.75,3.75,0,0,1-1.07.56,3.85,3.85,0,0,1-1.27.21h-.39a3.33,3.33,0,0,1-.84-.1Z"
    style="fill:#eeedee" />
  <path
    d="M109.25,12.88a1,1,0,0,0-1,.9l-.21,2a.78.78,0,0,0,.8.9h.54a1,1,0,0,0,1-.9l.21-2a.8.8,0,0,0-.81-.9h-.54m-1.44,6.36a1,1,0,0,0,.31.72,1.34,1.34,0,0,0,.87.31c.37,0,.91.07,1.2-.22a1.46,1.46,0,0,0,.5-.94h1.2a2,2,0,0,1-.23.93,2.56,2.56,0,0,1-.58.76,2.35,2.35,0,0,1-.94.49,7.32,7.32,0,0,1-1.4.09h-.37a3.49,3.49,0,0,1-1.14-.18,3,3,0,0,1-.92-.49,2.36,2.36,0,0,1-.6-.77,2.19,2.19,0,0,1-.22-1l.35-4.38a2.52,2.52,0,0,1,.17-.72,2.31,2.31,0,0,1,.22-.51,3,3,0,0,1,.75-.84,3.52,3.52,0,0,1,1.07-.56,3.8,3.8,0,0,1,1.27-.21h.38a3.69,3.69,0,0,1,1.15.18,2.82,2.82,0,0,1,.94.5,2.34,2.34,0,0,1,.64.76,2,2,0,0,1,.24,1v.24l-.07.82h0l0,.25a2.45,2.45,0,0,1-.34,1,3,3,0,0,1-.74.84,3.75,3.75,0,0,1-1.07.56,3.85,3.85,0,0,1-1.27.21h-.39a3.33,3.33,0,0,1-.84-.1Z"
    style="fill:#eeedee" />
  <path
    d="M48.5,14.18a2,2,0,0,0-.24-1,2.34,2.34,0,0,0-.36-.51h0a3.45,3.45,0,0,0-.28-.26,3.13,3.13,0,0,0-.94-.5,3.69,3.69,0,0,0-1.15-.18h-.38a3.8,3.8,0,0,0-1.27.21,3.7,3.7,0,0,0-1.06.56,2.8,2.8,0,0,0-.74.84c-.05.08-.09.17-.13.25a2.57,2.57,0,0,0-.22.81l-.36,4.19v.24a2,2,0,0,0,.24,1,2.32,2.32,0,0,0,.64.76,3,3,0,0,0,1,.49,3.66,3.66,0,0,0,1.16.18h.36a4,4,0,0,0,1.25-.2A3.72,3.72,0,0,0,47,20.49a3.17,3.17,0,0,0,.75-.85,2.4,2.4,0,0,0,.33-.95h0a.13.13,0,0,0,0-.06h0l.19-2.15h0l0-.33h0l.15-1.71Zm-2.73,4.5a1.79,1.79,0,0,1-.39,1.1,1,1,0,0,1-.74.36A.75.75,0,0,1,44,19.8a1.44,1.44,0,0,1-.26-.9v-.22l.18-2.11.19-2.26a2,2,0,0,1,.37-1,.93.93,0,0,1,.13-.15h0a.87.87,0,0,1,.62-.26.79.79,0,0,1,.64.32,1.45,1.45,0,0,1,.24.91v.21l0,.7h0l-.24,2.88h0Z"
    style="fill:#eeedee" />
  <path
    d="M51.92,13.24a.7.7,0,0,1,.59-.36H55.1l.11-1.11H52.62a4,4,0,0,0-1.26.19,3.51,3.51,0,0,0-1,.56,2.74,2.74,0,0,0-.75.84,2.55,2.55,0,0,0-.34,1.06L49,16.78h0l-.17,2.08h0v0h0a2.25,2.25,0,0,0,.85,1.7,2.75,2.75,0,0,0,.93.49,3.62,3.62,0,0,0,1.16.18h.38a2.59,2.59,0,0,0,1-.21,3,3,0,0,0,.88-.57,3.44,3.44,0,0,0,.51-.62l-1.32-.13a1.4,1.4,0,0,1-1,.41,1.05,1.05,0,0,1-1-.71l.08-1.9h0L51.65,14A1.82,1.82,0,0,1,51.92,13.24Z"
    style="fill:#eeedee" />
  <path
    d="M62.76,19.59l.15-1.66h0v-.23a2.31,2.31,0,0,0-.6-1.61,3.07,3.07,0,0,0-1.68-.93L64,11.77H61.54L58.66,14.7l.62-7.21H56.14L56,8.74h.69l-.82,9.7h0l-.19,2.27-.05.55h2.43L58.2,20h0l.11-1.31h0l.18-2.07a1.43,1.43,0,0,1,.82-.3.84.84,0,0,1,.79.43,2,2,0,0,1,.25,1l0,.79a5.73,5.73,0,0,0,0,1.56h0a1.25,1.25,0,0,0,.51.71,2.65,2.65,0,0,0,1.6.42h.85L63.36,20A.57.57,0,0,1,62.76,19.59Z"
    style="fill:#eeedee" />
  <path
    d="M3.59,21.15a1.53,1.53,0,0,1,1.5,1.3,3.05,3.05,0,0,1,4.6,2.63.86.86,0,0,1,0,.16,10.79,10.79,0,0,0,2.41-8.8l-.3-.09h0a4.37,4.37,0,0,1-.32-.65l0,0L8.76,19.76c-.09.15-.38.09-.38-.07V16a.93.93,0,0,1,.18-.55l1.95-2.69a13.53,13.53,0,0,1-.22-2.45,12.91,12.91,0,0,1,.3-2.82h0a7.49,7.49,0,0,1,2.17-3.7.21.21,0,0,1,.16,0h0l.1,0a7.5,7.5,0,0,1,2.25,3.7h0a14.33,14.33,0,0,1,.28,2.82,13,13,0,0,1-.21,2.4l1.93,2.66a.93.93,0,0,1,.18.55v3.72c0,.16-.29.22-.38.07l-2.68-4.06,0-.06a4.85,4.85,0,0,1-.39.79,3,3,0,0,1-.37.11A10.81,10.81,0,0,0,16,25.24v-.16a3,3,0,0,1,3.05-3,3,3,0,0,1,1.54.42,1.55,1.55,0,0,1,1.51-1.3,1.71,1.71,0,0,1,.51.09,12.87,12.87,0,1,0-19.53,0A1.53,1.53,0,0,1,3.59,21.15Z"
    style="fill:#eeedee" />
  <circle cx="12.98" cy="8.5" r="0.66" style="fill:#eeedee" />
  <circle cx="12.98" cy="10.32" r="0.66" style="fill:#eeedee" />
  <circle cx="12.98" cy="12.14" r="0.66" style="fill:#eeedee" />
</svg>