<svg xmlns="http://www.w3.org/2000/svg" viewBox="0 0 25.5 25.24">
  <title>rocketmakers</title>
  <path
    d="M3.59,21.15a1.53,1.53,0,0,1,1.5,1.3,3.05,3.05,0,0,1,4.6,2.63.86.86,0,0,1,0,.16,10.79,10.79,0,0,0,2.41-8.8l-.3-.09h0a4.37,4.37,0,0,1-.32-.65l0,0L8.76,19.76c-.09.15-.38.09-.38-.07V16a.93.93,0,0,1,.18-.55l1.95-2.69a13.53,13.53,0,0,1-.22-2.45,12.91,12.91,0,0,1,.3-2.82h0a7.49,7.49,0,0,1,2.17-3.7.21.21,0,0,1,.16,0h0l.1,0a7.5,7.5,0,0,1,2.25,3.7h0a14.33,14.33,0,0,1,.28,2.82,13,13,0,0,1-.21,2.4l1.93,2.66a.93.93,0,0,1,.18.55v3.72c0,.16-.29.22-.38.07l-2.68-4.06,0-.06a4.85,4.85,0,0,1-.39.79,3,3,0,0,1-.37.11A10.81,10.81,0,0,0,16,25.24v-.16a3,3,0,0,1,3.05-3,3,3,0,0,1,1.54.42,1.55,1.55,0,0,1,1.51-1.3,1.71,1.71,0,0,1,.51.09,12.87,12.87,0,1,0-19.53,0A1.53,1.53,0,0,1,3.59,21.15Z"
    style="fill:#eeedee" />
  <circle cx="12.98" cy="8.5" r="0.66" style="fill:#eeedee" />
  <circle cx="12.98" cy="10.32" r="0.66" style="fill:#eeedee" />
  <circle cx="12.98" cy="12.14" r="0.66" style="fill:#eeedee" />
</svg>